<svg id="Layer_1" data-name="Layer 1" xmlns="http://www.w3.org/2000/svg" viewBox="0 0 240 240"><defs><style>.cls-1,.cls-4{fill:#fff;}.cls-1,.cls-2,.cls-4,.cls-5{stroke:#231f20;stroke-miterlimit:10;}.cls-1{stroke-width:5px;}.cls-2,.cls-3{fill:#231f20;}.cls-2{stroke-width:3px;}.cls-4,.cls-5{stroke-width:4px;}.cls-5{fill:none;}</style></defs><title>Specter Logo Regular</title><path class="cls-1" d="M129.62,184.09c20.92,0,38.25-4.5,51.75-13.5,13.19-8.79,22.5-40.08,6.75-49.5-6.8-4.07-25.83-1.57-42.1,2.2s-93,13.18-90.65,22.6S101.73,184.09,129.62,184.09Z"/><path class="cls-2" d="M33.87,109.84c2.57,0,4.5,12.79,14.74,17.06,5.27,2.19,18,0,18,0L64,149.49s-7.67,3-18-1.27a28.7,28.7,0,0,1-16.66-17.06C26.93,124.22,30.23,109.84,33.87,109.84Z"/><path class="cls-2" d="M153.8,130.09c24.6,18.12,33.43,27,36,45,2.25,15.75-1.69,27-8.45,26.39-2.59-.24-2.14-9.28-7.3-17.42a80.38,80.38,0,0,0-32.65-29.22C125,147,153.8,130.09,153.8,130.09Z"/><path class="cls-2" d="M219.62,125.73c2.25,11.11-24.75,17.86-31.5,17.86s-24.94-2.11-31.69-6.61,4.5-18,13.5-18,11.25,4.5,22.5,4.5S218.72,121.32,219.62,125.73Z"/><path class="cls-3" d="M81.2,139.58c-11.43,1.3-34.05,5.66-42.89,29.83S41.4,205,45.06,208c2.82,2.3,5.68-.06,7.45-4.9s.08-19.84,15-30.8,22-9.2,22-9.2Z"/><path class="cls-3" d="M68.69,163c-6.32,28.06,1.75,48.07,13,61.18,8,9.33,21.63,7.81,18,.47-4.5-9.09-6.37-19.91-4.5-40.59s16.43-35.86,16.43-35.86l-28.2-13.54S74.34,137.92,68.69,163Z"/><path class="cls-3" d="M136.37,224.59c0,5.5,5.83,9,10.71,4.05,5.45-5.5,12.17-19.38,7.29-48.91s-31.68-49.5-31.68-49.5L95.87,149.92s11.45,12.14,26.84,36.42C134.12,204.34,136.37,219.67,136.37,224.59Z"/><path class="cls-1" d="M93.62,181.84c-15.49,3.64-36,2.25-47.25-6.75-5.09-4.07-11.18-9.91-6.75-20.25,6.75-15.75,22.5-15.75,22.5-31.5,0-9.3-5.29-20.11-6.75-29.11s-6.75-18-2.25-40.45C58.49,26.94,79.71,12.58,105.56,11,143.12,8.78,161,26.78,163.37,47s.12,31.37-.93,40.31c-1.32,11.11.93,13.5,4.71,18,3.26,3.89,18.52,6.75,23.23,11.25s4.5,6.89,4.5,6.89-8.91-3.42-13.5-2.39c-6.83,1.53-11.25,4.88-15.75,9-9.44,8.65-17.49,16.8-24.75,24.75C127.41,169.56,115,176.8,93.62,181.84Z"/><path class="cls-3" d="M71.87,61.83c0,7-2.18,8.5-4.88,8.5s-4.88-1.46-4.88-8.5,3.81-12.74,6.5-12.74S71.87,54.8,71.87,61.83Z"/><path class="cls-3" d="M110.12,58.68c0,7.78-2.69,9.4-6,9.4s-6-1.61-6-9.4,4.69-14.09,8-14.09S110.12,50.9,110.12,58.68Z"/><path class="cls-4" d="M38.8,76.68c.2-2.5,3.08-6.16,7.7-7.7s18-2.08,22.62-.54,5.16,2.08,6.69,5.16c2.84,5.68,1.54,21,0,24.09-1.38,2.75-2.45,4.36-9.23,5.16s-13.41,1.33-18,.54c-4.8-.83-6.69-2.08-8.23-6.69C39.36,93.76,38.52,80.11,38.8,76.68Z"/><path class="cls-4" d="M138.64,69.64c-1.47-4.3-4.44-6.19-9.75-7.07s-22.41.12-27.19,2.61-6.19,4.44-7.34,8.07c-1.53,4.85,1,19.35,3.76,23.26,2,2.77,3.13,2.82,7.29,3.33,7.51.92,19.76,1.05,26.28-1,5.13-1.65,7.88-2.7,8.75-8C141,87.42,139.87,73.25,138.64,69.64Z"/><path class="cls-5" d="M93.75,78C89,71.67,78.17,74,77,78"/></svg>