<svg id="Layer_1" data-name="Layer 1" xmlns="http://www.w3.org/2000/svg" viewBox="0 0 240 240"><title>Specter Logo Outline 2</title><path d="M54,101.77a30.74,30.74,0,0,1-5.1-.36c-4-.7-5.39-1.48-6.68-5.36-.89-2.67-1.7-16.07-1.44-19.22.11-1.38,2.08-4.54,6.33-6a14.72,14.72,0,0,1,1.71-.43c0-1.29,0-2.66.11-4.09a21.68,21.68,0,0,0-3.09.72c-5.54,1.85-8.8,6.24-9.06,9.43h0c-.27,3.34.51,17.43,1.63,20.8,1.9,5.69,4.78,7.17,9.79,8a34.61,34.61,0,0,0,5.78.42c.57,0,1.17,0,1.76,0-.41-1.32-.81-2.64-1.19-4Z"/><path d="M67,72.33a4,4,0,0,1-4.05-2.73c-.9,0-1.87-.07-2.88-.07a62.3,62.3,0,0,0-11.23.92,68.48,68.48,0,0,0,2.72,18.27c.54,2.08,1,4,1.35,5.91a62.34,62.34,0,0,0,1.68,7.12,117.11,117.11,0,0,0,11.77-.9c6-.7,6.56-1.83,7.68-4.06.73-1.49,2.17-10.59,1.13-18l-.22-1.59.08-.11-.66-1.81a7.45,7.45,0,0,0-.32-.77C73,72.37,72.7,71.86,70.26,71A3.94,3.94,0,0,1,67,72.33Z"/><path d="M104.12,70.08A5.08,5.08,0,0,1,100,68.48a8.87,8.87,0,0,0-3.77,5.37,5.5,5.5,0,0,0-.16.73l-.43,2.61.22.27.06,1.34c.28,6.72,2.27,14.41,3.8,16.55,1.4,2,1.71,2,5.48,2.46l.42.05a92.53,92.53,0,0,0,10.86.62c6.13,0,11.44-.57,14.56-1.58,5-1.59,6.72-2.35,7.39-6.44.49-3-.55-16.74-1.72-20.17-1-2.87-2.69-4.84-8.19-5.74a36.68,36.68,0,0,0-5.15-.27,100.33,100.33,0,0,0-13.72,1C108.81,69.13,106.65,70.08,104.12,70.08Z"/><path d="M221.09,125.44c-.92-4.56-9.26-4.19-19.82-3.72l-4.16.17c-.47-1.56-1.73-4-5-7.1-2.75-2.63-8-4.56-13.13-6.43-3.88-1.42-8.72-3.2-9.91-4.62l-.25-.29c-3.47-4.13-5.05-6-3.89-15.8.14-1.17.3-2.39.47-3.65a134.81,134.81,0,0,0,.47-37.24c-2.33-20.08-19.42-40.66-60.44-38.21C76.39,10.27,55.92,27,50.67,53.29A91.71,91.71,0,0,0,49,66.37a70.79,70.79,0,0,1,11.11-.83c.72,0,1.42,0,2.11,0,0-.54-.06-1.11-.06-1.73,0-7,3.81-12.74,6.5-12.74s3.25,5.71,3.25,12.74a23.24,23.24,0,0,1-.22,3.38C75,68.5,76,69.54,77.6,72.7a11.32,11.32,0,0,1,.5,1.19,12.57,12.57,0,0,1,4.27-1.57,15.33,15.33,0,0,1,2.75-.25,13.61,13.61,0,0,1,7,1.85,9.48,9.48,0,0,1,.29-1.28,13,13,0,0,1,6-7.91,22.06,22.06,0,0,1-.33-4c0-7.78,4.69-14.09,8-14.09s4,6.31,4,14.09c0,.16,0,.3,0,.45a107.83,107.83,0,0,1,13.3-.87,39.53,39.53,0,0,1,5.8.33c6.28,1,9.66,3.55,11.32,8.4,1.39,4.07,2.47,18.55,1.88,22.11-1.11,6.71-5.28,8-10.12,9.6-3.89,1.25-9.85,1.77-15.78,1.77a96.3,96.3,0,0,1-11.35-.65l-.42-.05c-4-.49-5.82-.71-8.25-4.1S92.22,85.6,91.95,79a8.6,8.6,0,0,0-6.79-2.89,11.52,11.52,0,0,0-2.06.18,6.5,6.5,0,0,0-4,2c1,7.48-.18,17.7-1.51,20.36-1.87,3.73-3.78,5.43-10.79,6.25-3.6.42-7.45.79-11,.9l.26.84c1.77,5.71,3.59,11.62,3.59,16.78a17.35,17.35,0,0,1-.24,2.89c-3.78.26-7.92.23-10.2-.72-6-2.51-9-8.44-11-12.35-1.47-2.9-2.44-4.82-4.29-4.82a4,4,0,0,0-3.23,2c-3,4.19-4.81,15.26-2.69,21.28A29.73,29.73,0,0,0,41,147.4a31.4,31.4,0,0,0-3.72,6.46c-3,6.94-1.66,12.25.78,16.16-8.41,23.74,3.34,35,7,37.93,2.82,2.3,5.68-.06,7.45-4.9,1.2-3.29.81-11.29,5.15-19.52a58.93,58.93,0,0,0,8.89,1.94,62.87,62.87,0,0,0,15.13,38.73c8,9.33,21.63,7.81,18,.47-4.5-9.09-6.37-19.91-4.5-40.59V184c3.35-.81,6.48-1.67,9.43-2.61l.3.11c30-12,41.25-27.81,48.72-38.3a70.85,70.85,0,0,1,5.38-7c1.09-1.17,2.2-2.42,3.34-3.69C170,124,176.55,115.38,187.79,117c0,0,5,2,5,4.65a5.68,5.68,0,0,0-3.62-1.69c-9.08-1.32-16.93,7.46-23.85,15.21-1.16,1.3-2.29,2.57-3.4,3.76a68.33,68.33,0,0,0-5.05,6.59c-6.92,9.73-18.22,25.6-46.18,37.89a80.3,80.3,0,0,0,11.8,2.65l.17.27c11.41,18,13.66,33.33,13.66,38.25,0,5.5,5.83,9,10.71,4.05,5.18-5.23,11.49-18,7.93-44.6a88.69,88.69,0,0,0,14.21-4.31c1.43,1.9,2.63,3.65,3.57,5.13a39.72,39.72,0,0,1,4.55,11.71c.93,3.59,1.59,6.19,3.88,6.39q.33,0,.66,0a7.29,7.29,0,0,0,5.36-2.44c4.14-4.36,5.69-14.2,4.05-25.68a52.47,52.47,0,0,0-1.93-8.63,49.39,49.39,0,0,0,9.2-22.92c7.42-1.94,16.32-5.45,20.41-10.45A8.68,8.68,0,0,0,221.09,125.44Z"/></svg>