<svg id="Layer_1" data-name="Layer 1" xmlns="http://www.w3.org/2000/svg" viewBox="0 0 240 240"><defs><style>.cls-1{fill:#231f20;}</style></defs><title>Specter Logo Outline 1</title><path class="cls-1" d="M221.09,125.44c-.92-4.56-9.26-4.19-19.82-3.72l-4.16.17c-.47-1.56-1.73-4-5-7.1-2.75-2.63-8-4.56-13.13-6.43-3.88-1.42-8.72-3.2-9.91-4.62l-.25-.29c-3.47-4.13-5.05-6-3.89-15.8.14-1.17.3-2.39.47-3.65a134.81,134.81,0,0,0,.47-37.24c-2.33-20.08-19.42-40.66-60.44-38.21C76.39,10.27,55.92,27,50.67,53.29c-.65,3.25-1.1,6.23-1.39,9a28.49,28.49,0,0,0-4.68,1c-7.24,2.41-11.41,8.32-11.78,12.9-.27,3.4.42,18.17,1.83,22.39,2.49,7.47,7,9.68,12.9,10.71a38.05,38.05,0,0,0,6.46.48c1,0,2,0,3-.07,1.41,4.7,2.64,9.42,2.64,13.65a17.35,17.35,0,0,1-.24,2.89c-3.78.26-7.92.23-10.2-.72-6-2.51-9-8.44-11-12.35-1.47-2.9-2.44-4.82-4.29-4.82a4,4,0,0,0-3.23,2c-3,4.19-4.81,15.26-2.69,21.28A29.73,29.73,0,0,0,41,147.4a31.4,31.4,0,0,0-3.72,6.46c-3,6.94-1.66,12.25.78,16.16-8.41,23.74,3.34,35,7,37.93,2.82,2.3,5.68-.06,7.45-4.9,1.2-3.29.81-11.29,5.15-19.52a58.93,58.93,0,0,0,8.89,1.94,62.87,62.87,0,0,0,15.13,38.73c8,9.33,21.63,7.81,18,.47-4.5-9.09-6.37-19.91-4.5-40.59V184c3.35-.81,6.48-1.67,9.43-2.61l.3.11c30-12,41.25-27.81,48.72-38.3a70.85,70.85,0,0,1,5.38-7c1.09-1.17,2.2-2.42,3.34-3.69C170,124,176.55,115.38,187.79,117c0,0,5,2,5,4.65a5.68,5.68,0,0,0-3.62-1.69c-9.08-1.32-16.93,7.46-23.85,15.21-1.16,1.3-2.29,2.57-3.4,3.76a68.33,68.33,0,0,0-5.05,6.59c-6.92,9.73-18.22,25.6-46.18,37.89a80.3,80.3,0,0,0,11.8,2.65l.17.27c11.41,18,13.66,33.33,13.66,38.25,0,5.5,5.83,9,10.71,4.05,5.18-5.23,11.49-18,7.93-44.6a88.69,88.69,0,0,0,14.21-4.31c1.43,1.9,2.63,3.65,3.57,5.13a39.72,39.72,0,0,1,4.55,11.71c.93,3.59,1.59,6.19,3.88,6.39q.33,0,.66,0a7.29,7.29,0,0,0,5.36-2.44c4.14-4.36,5.69-14.2,4.05-25.68a52.47,52.47,0,0,0-1.93-8.63,49.39,49.39,0,0,0,9.2-22.92c7.42-1.94,16.32-5.45,20.41-10.45A8.68,8.68,0,0,0,221.09,125.44Zm-115-80.85c3.09,0,3.89,5.47,4,12.51-4.39.55-8.62,1.42-11.18,2.75l-.76.42c0-.5,0-1,0-1.59C98.12,50.9,102.81,44.59,106.12,44.59Zm-37.5,4.5c2.69,0,3.25,5.71,3.25,12.74,0,.42,0,.82,0,1.21L71,62.75a33.77,33.77,0,0,0-8.89-1.19C62.22,54.65,66,49.09,68.62,49.09Zm73.79,42c-1.11,6.71-5.28,8-10.12,9.6-3.89,1.25-9.85,1.77-15.78,1.77a96.28,96.28,0,0,1-11.35-.65l-.42-.05c-4-.49-5.82-.71-8.25-4.1S92.22,85.6,91.95,79c-2.27-2.76-6-3.22-8.85-2.7a6.5,6.5,0,0,0-4,2c1,7.48-.18,17.7-1.51,20.36-1.87,3.73-3.78,5.43-10.79,6.25-3.6.42-7.45.79-11,.9h0c-.59,0-1.19,0-1.76,0a34.61,34.61,0,0,1-5.78-.42c-5-.87-7.89-2.35-9.79-8-1.12-3.37-1.9-17.46-1.63-20.8h0c.26-3.19,3.52-7.59,9.06-9.43.27-.09.57-.17.89-.26l.3-.08.85-.19.51-.1.54-.1h0a72.58,72.58,0,0,1,13.45-.79h.1l.88,0,.52,0,1.17.09.72.07.56.06.94.13.31,0,1,.18.28.06c.33.08.65.16.93.26l1.48.51h0C75,68.41,76,69.41,77.6,72.7a11.32,11.32,0,0,1,.5,1.19,12.57,12.57,0,0,1,4.27-1.57,14.29,14.29,0,0,1,9.78,1.6,9.48,9.48,0,0,1,.29-1.28,13.1,13.1,0,0,1,6.45-8.19h0l.88-.51,0,0,1-.52c.21-.11.45-.22.7-.32l.2-.08.72-.26.11,0,1-.3.08,0,1.06-.27h0c7.37-1.74,20.15-2.23,24.56-1.5,6.28,1,9.66,3.55,11.32,8.4C141.92,73.06,143,87.55,142.41,91.11Z"/></svg>